<svg width="102" height="103" viewBox="0 0 102 103" fill="none" xmlns="http://www.w3.org/2000/svg">
<path fill-rule="evenodd" clip-rule="evenodd" d="M101.698 69.5102C101.698 71.4247 100.937 73.2608 99.5836 74.6146L74.1141 100.084C72.7604 101.438 70.9242 102.198 69.0097 102.198L32.9905 102.198C31.0759 102.198 29.2398 101.438 27.886 100.084L2.41657 74.6146C1.06279 73.2609 0.302246 71.4247 0.302246 69.5102L0.302248 33.4909C0.302248 31.5764 1.06279 29.7403 2.41657 28.3865L27.886 2.91706C29.2398 1.56328 31.0759 0.802734 32.9905 0.802734H36.6902H69.0097C70.9242 0.802734 72.7604 1.56328 74.1141 2.91706L99.5836 28.3865C100.937 29.7403 101.698 31.5764 101.698 33.4909L101.698 69.5102ZM75.5313 58.6716C75.5313 60.5862 74.7708 62.4223 73.417 63.7761L62.7066 74.4864C61.7712 75.4219 61.4913 76.8287 61.9976 78.0509V78.0509C62.8897 80.2045 65.684 80.7604 67.3323 79.1121L79.9586 66.4857C81.3124 65.1319 82.073 63.2958 82.073 61.3813L82.073 41.6199C82.073 39.7053 81.3124 37.8692 79.9586 36.5154L65.9852 22.542C64.6314 21.1883 62.7953 20.4277 60.8808 20.4277H41.1194C39.2049 20.4277 37.3687 21.1882 36.015 22.542L22.0415 36.5154C20.6878 37.8692 19.9272 39.7053 19.9272 41.6199L19.9272 61.3813C19.9272 63.2958 20.6878 65.1319 22.0415 66.4857L34.6679 79.1121C36.3162 80.7604 39.1105 80.2045 40.0026 78.0509V78.0509C40.5088 76.8287 40.229 75.4219 39.2935 74.4864L28.5832 63.7761C27.2294 62.4223 26.4689 60.5862 26.4689 58.6716V44.3295C26.4689 42.415 27.2294 40.5789 28.5832 39.2251L38.7246 29.0837C40.0784 27.7299 41.9145 26.9694 43.829 26.9694H58.1711C60.0857 26.9694 61.9218 27.7299 63.2756 29.0837L73.417 39.2251C74.7708 40.5789 75.5313 42.415 75.5313 44.3295V58.6716ZM6.84391 36.2006C6.84391 34.2861 7.60445 32.4499 8.95823 31.0962L30.5957 9.45871C31.9495 8.10494 33.7856 7.34439 35.7001 7.34439H42.0462L60.0081 7.34439H66.3001C68.2146 7.34439 70.0507 8.10494 71.4045 9.45871L93.0419 31.0962C94.3957 32.4499 95.1563 34.2861 95.1563 36.2006L95.1563 66.8006C95.1563 68.7151 94.3957 70.5512 93.0419 71.905L72.7516 92.1954C71.1033 93.8437 68.3089 93.2878 67.4169 91.1342V91.1342C66.9106 89.912 67.1905 88.5052 68.1259 87.5697L86.5003 69.1953C87.8541 67.8416 88.6146 66.0055 88.6146 64.0909L88.6146 38.9125C88.6146 36.9966 87.853 35.1593 86.4975 33.8053L68.6706 15.9976C67.3171 14.6455 65.4821 13.886 63.5689 13.886H38.4689C36.5581 13.886 34.7252 14.6437 33.3721 15.9928L15.5075 33.8045C14.149 35.1589 13.3856 36.9983 13.3856 38.9165L13.3856 64.0909C13.3856 66.0055 14.1461 67.8416 15.4999 69.1953L33.8743 87.5697C34.8097 88.5052 35.0895 89.912 34.5833 91.1342V91.1342C33.6912 93.2879 30.8969 93.8437 29.2486 92.1954L8.95823 71.905C7.60445 70.5512 6.8439 68.7151 6.8439 66.8006L6.84391 36.2006Z" fill="#F4F4F4"/>
</svg>
