<svg width="250" height="63" viewBox="0 0 250 63" fill="none" xmlns="http://www.w3.org/2000/svg">
<path d="M31.792 62.6022C26.1138 62.6022 20.8945 61.2831 16.134 58.6447C11.4309 56.0064 7.67415 52.3357 4.86374 47.6325C2.1107 42.8721 0.734175 37.538 0.734175 31.6305C0.734175 25.7229 2.1107 20.4175 4.86374 15.7144C7.67415 11.0113 11.4309 7.34056 16.134 4.70223C20.8945 2.06389 26.1138 0.744722 31.792 0.744722C37.4701 0.744722 42.6608 2.06389 47.3639 4.70223C52.1244 7.34056 55.8525 11.0113 58.5481 15.7144C61.3012 20.4175 62.6777 25.7229 62.6777 31.6305C62.6777 37.538 61.3012 42.8721 58.5481 47.6325C55.7951 52.3357 52.067 56.0064 47.3639 58.6447C42.6608 61.2831 37.4701 62.6022 31.792 62.6022ZM31.792 49.1811C36.6098 49.1811 40.4526 47.5752 43.3204 44.3633C46.2455 41.1514 47.708 36.9071 47.708 31.6305C47.708 26.2964 46.2455 22.0522 43.3204 18.8976C40.4526 15.6857 36.6098 14.0798 31.792 14.0798C26.9168 14.0798 23.0166 15.6571 20.0915 18.8116C17.2238 21.9661 15.7899 26.2391 15.7899 31.6305C15.7899 36.9645 17.2238 41.2374 20.0915 44.4493C23.0166 47.6039 26.9168 49.1811 31.792 49.1811ZM69.2276 31.7165C69.2276 25.7516 70.5181 20.4462 73.0991 15.8004C75.6801 11.0973 79.2648 7.45527 83.8532 4.87429C88.499 2.23595 93.7469 0.916785 99.5972 0.916785C106.767 0.916785 112.904 2.8095 118.008 6.59494C123.113 10.3804 126.525 15.5423 128.246 22.0808H112.072C110.867 19.5572 109.147 17.6358 106.91 16.3166C104.73 14.9975 102.236 14.3379 99.4251 14.3379C94.894 14.3379 91.2233 15.9152 88.4129 19.0697C85.6025 22.2242 84.1973 26.4398 84.1973 31.7165C84.1973 36.9932 85.6025 41.2088 88.4129 44.3633C91.2233 47.5178 94.894 49.0951 99.4251 49.0951C102.236 49.0951 104.73 48.4355 106.91 47.1163C109.147 45.7972 110.867 43.8758 112.072 41.3522H128.246C126.525 47.8906 123.113 53.0526 118.008 56.838C112.904 60.5661 106.767 62.4302 99.5972 62.4302C93.7469 62.4302 88.499 61.1397 83.8532 58.5587C79.2648 55.9204 75.6801 52.2783 73.0991 47.6325C70.5181 42.9868 69.2276 37.6814 69.2276 31.7165ZM181.562 1.60505V13.3915H165.56V62H150.848V13.3915H134.846V1.60505H181.562ZM218.369 62.6022C212.69 62.6022 207.471 61.2831 202.711 58.6447C198.008 56.0064 194.251 52.3357 191.44 47.6325C188.687 42.8721 187.311 37.538 187.311 31.6305C187.311 25.7229 188.687 20.4175 191.44 15.7144C194.251 11.0113 198.008 7.34056 202.711 4.70223C207.471 2.06389 212.69 0.744722 218.369 0.744722C224.047 0.744722 229.237 2.06389 233.941 4.70223C238.701 7.34056 242.429 11.0113 245.125 15.7144C247.878 20.4175 249.254 25.7229 249.254 31.6305C249.254 37.538 247.878 42.8721 245.125 47.6325C242.372 52.3357 238.644 56.0064 233.941 58.6447C229.237 61.2831 224.047 62.6022 218.369 62.6022ZM218.369 49.1811C223.186 49.1811 227.029 47.5752 229.897 44.3633C232.822 41.1514 234.285 36.9071 234.285 31.6305C234.285 26.2964 232.822 22.0522 229.897 18.8976C227.029 15.6857 223.186 14.0798 218.369 14.0798C213.493 14.0798 209.593 15.6571 206.668 18.8116C203.8 21.9661 202.367 26.2391 202.367 31.6305C202.367 36.9645 203.8 41.2374 206.668 44.4493C209.593 47.6039 213.493 49.1811 218.369 49.1811Z" fill="#F4F4F4"/>
</svg>
