<svg width="56" height="56" viewBox="0 0 56 56" fill="none" xmlns="http://www.w3.org/2000/svg">
<path d="M7.23708 18.1004L18.1552 7.21875C18.7176 6.65831 19.4791 6.34362 20.273 6.34362H23.4081H32.6197H35.727C36.5209 6.34362 37.2824 6.65831 37.8448 7.21875L48.7629 18.1004C49.3277 18.6633 49.6452 19.4279 49.6452 20.2253L49.6452 35.6008C49.6452 36.3982 49.3277 37.1628 48.7629 37.7257L38.4437 48.0104C38.1037 48.3493 37.5287 48.2347 37.3445 47.7915C37.2395 47.5389 37.2975 47.2479 37.4912 47.0548L46.8199 37.7573C47.7612 36.8192 48.2903 35.5448 48.2903 34.2159L48.2903 21.6115C48.2903 20.2816 47.7605 19.0065 46.818 18.0681L37.8542 9.14389C36.9171 8.21099 35.6487 7.68724 34.3265 7.68724H21.6927C20.3721 7.68724 19.1051 8.2097 18.1684 9.14056L9.18533 18.067C8.24081 19.0056 7.70968 20.2822 7.70968 21.6137L7.70968 34.2159C7.70968 35.5448 8.23876 36.8192 9.18007 37.7573L18.5088 47.0548C18.7025 47.2479 18.7605 47.5389 18.6555 47.7915C18.4713 48.2347 17.8963 48.3493 17.5563 48.0105L7.23707 37.7257C6.67229 37.1628 6.35484 36.3982 6.35484 35.6008L6.35484 20.2253C6.35484 19.4279 6.67229 18.6633 7.23708 18.1004ZM40.6462 53.3675L53.5296 40.5273C54.4709 39.5891 55 38.3148 55 36.9858L55 18.8403C55 17.5113 54.4709 16.237 53.5296 15.2988L40.6462 2.45855C39.709 1.52449 38.4398 1 37.1166 1H20.6613H18.8834C17.5602 1 16.291 1.52449 15.3538 2.45855L2.47039 15.2988C1.52909 16.237 1 17.5113 1 18.8403L1 36.9858C1 38.3148 1.52909 39.5891 2.47039 40.5273L15.3538 53.3675C16.291 54.3016 17.5602 54.8261 18.8834 54.8261H37.1166C38.4398 54.8261 39.709 54.3016 40.6462 53.3675ZM34.712 40.3676L40.1103 34.9874C41.0516 34.0492 41.5806 32.7749 41.5806 31.4459V24.3802C41.5806 23.0512 41.0516 21.7769 40.1103 20.8387L35.0878 15.833C34.1506 14.899 32.8813 14.3745 31.5581 14.3745H24.4419C23.1187 14.3745 21.8494 14.899 20.9123 15.833L15.8897 20.8387C14.9484 21.7769 14.4194 23.0512 14.4194 24.3802V31.4459C14.4194 32.7749 14.9484 34.0492 15.8897 34.9874L21.288 40.3676C21.4818 40.5607 21.5397 40.8517 21.4347 41.1043C21.2506 41.5475 20.6755 41.662 20.3356 41.3232L13.9468 34.9558C13.382 34.3929 13.0645 33.6283 13.0645 32.8309V22.9952C13.0645 22.1978 13.382 21.4332 13.9468 20.8703L20.9345 13.906C21.4968 13.3455 22.2583 13.0309 23.0522 13.0309H32.9478C33.7417 13.0309 34.5032 13.3456 35.0655 13.906L42.0532 20.8703C42.618 21.4332 42.9355 22.1978 42.9355 22.9952L42.9355 32.8309C42.9355 33.6283 42.618 34.3929 42.0532 34.9558L35.6644 41.3232C35.3245 41.662 34.7495 41.5475 34.5653 41.1043C34.4603 40.8517 34.5182 40.5607 34.712 40.3676Z" fill="#F4F4F4" stroke="#3D3D3D" stroke-width="2"/>
</svg>
