<svg width="181" height="180" viewBox="0 0 181 180" fill="none" xmlns="http://www.w3.org/2000/svg">
<g style="mix-blend-mode:darken">
<path fill-rule="evenodd" clip-rule="evenodd" d="M90.5 180C140.482 180 181 139.706 181 90C181 40.2944 140.482 0 90.5 0C40.5182 0 0 40.2944 0 90C0 139.706 40.5182 180 90.5 180ZM90.5 171C124.466 171 152 134.511 152 89.5C152 44.4888 124.466 8 90.5 8C56.5345 8 29 44.4888 29 89.5C29 134.511 56.5345 171 90.5 171Z" fill="url(#paint0_angular_3258_29)"/>
</g>
<path d="M127.5 64V115H123.5C123.698 107.102 119.448 101.293 113.265 98.5H68.235C62.0517 101.293 57.802 107.102 58 115H54V64H58C57.802 71.8976 62.0517 77.7071 68.235 80.5H113.265C119.448 77.7071 123.698 71.8976 123.5 64H127.5Z" fill="url(#paint1_angular_3258_29)"/>
<defs>
<radialGradient id="paint0_angular_3258_29" cx="0" cy="0" r="1" gradientUnits="userSpaceOnUse" gradientTransform="translate(90.5 88.2353) rotate(90) scale(88.2353 90.5)">
<stop offset="0.357943" stop-color="#00B3CF"/>
<stop offset="0.850569" stop-color="#0EB3B6"/>
</radialGradient>
<radialGradient id="paint1_angular_3258_29" cx="0" cy="0" r="1" gradientUnits="userSpaceOnUse" gradientTransform="translate(90.75 89) rotate(90) scale(25 36.75)">
<stop offset="0.357943" stop-color="#00B3CF"/>
<stop offset="0.850569" stop-color="#0EB3B6"/>
</radialGradient>
</defs>
</svg>
