<svg width="183" height="184" viewBox="0 0 183 184" fill="none" xmlns="http://www.w3.org/2000/svg">
<path d="M113.981 2.94336L7.82031 2.94336L180.749 175.872L180.443 69.4055L113.981 2.94336Z" fill="url(#paint0_linear_3295_1473)" stroke="black" stroke-width="3"/>
<path d="M177.648 181.7C179.305 181.7 180.648 180.357 180.648 178.7V157.7H173.648C171.992 157.7 170.648 159.043 170.648 160.7V178.7C170.648 180.357 171.992 181.7 173.648 181.7H177.648Z" fill="#FAC319"/>
<path d="M177.648 183.2C180.134 183.2 182.148 181.185 182.148 178.7V157.7H179.148V178.7C179.148 179.529 178.477 180.2 177.648 180.2V183.2ZM170.648 157.7V181.7V157.7ZM170.648 178.7C170.648 181.185 172.663 183.2 175.148 183.2H177.648C180.134 183.2 182.148 181.185 182.148 178.7H179.148C179.148 179.529 178.477 180.2 177.648 180.2H173.648C171.992 180.2 170.648 179.529 170.648 178.7ZM180.648 157.7H170.648H180.648Z" fill="black"/>
<path d="M1.82031 5.94336C1.82031 4.28651 3.16346 2.94336 4.82031 2.94336L25.8203 2.94336V9.94336C25.8203 11.6002 24.4772 12.9434 22.8203 12.9434L4.82031 12.9434C3.16346 12.9434 1.82031 11.6002 1.82031 9.94336L1.82031 5.94336Z" fill="#FF7603"/>
<path d="M0.320313 5.94336C0.320312 3.45808 2.33503 1.44336 4.82031 1.44336L25.8203 1.44336V4.44336L4.82031 4.44336C3.99189 4.44336 3.32031 5.11493 3.32031 5.94336H0.320313ZM25.8203 12.9434L1.82031 12.9434L25.8203 12.9434ZM4.82031 12.9434C2.33503 12.9434 0.320313 10.9286 0.320313 8.44336V5.94336C0.320312 3.45808 2.33503 1.44336 4.82031 1.44336V4.44336C3.99189 4.44336 3.32031 5.11493 3.32031 5.94336L3.32031 9.94336C3.32031 11.6002 3.99189 12.9434 4.82031 12.9434ZM25.8203 2.94336V12.9434V2.94336Z" fill="black"/>
<path d="M57.461 40.2531C55.2313 38.0234 53.3516 35.5992 51.8219 32.9805C50.344 30.3619 49.3977 27.9636 48.9828 25.7857L57.1888 22.6356C57.6296 24.632 58.3815 26.6802 59.4445 28.7803C60.5593 30.8804 61.9076 32.7213 63.4891 34.3028C64.5521 35.3659 65.4985 36.1307 66.3282 36.5974C67.1837 37.0382 67.9097 37.2456 68.506 37.2196C69.1542 37.1937 69.6987 36.9604 70.1395 36.5196C70.7617 35.8974 70.9691 35.1195 70.7617 34.1862C70.5543 33.2528 70.1135 32.2157 69.4394 31.0749C68.7653 29.9341 67.9875 28.6896 67.106 27.3414C66.2504 26.0191 65.4466 24.619 64.6947 23.1412C63.9688 21.6892 63.4373 20.2243 63.1002 18.7465C62.7891 17.2427 62.815 15.7389 63.178 14.2351C63.5669 12.7054 64.4873 11.2146 65.9392 9.76269C67.5727 8.12928 69.4913 7.09219 71.6951 6.65142C73.9248 6.23659 76.3361 6.52179 78.9288 7.50702C81.5215 8.49226 84.1531 10.3201 86.8236 12.9906C88.6126 14.7796 90.1553 16.7371 91.4517 18.8632C92.7999 20.9892 93.7592 23.1152 94.3296 25.2413L86.2403 28.5859C85.644 26.5895 84.8791 24.7875 83.9457 23.18C83.0383 21.5466 81.9882 20.1336 80.7956 18.9409C79.7325 17.8779 78.7603 17.139 77.8787 16.7242C77.0231 16.2834 76.2713 16.1019 75.6231 16.1797C74.9749 16.2575 74.4175 16.5297 73.9508 16.9964C73.3544 17.5927 73.147 18.3446 73.3285 19.2521C73.5619 20.1595 74.0156 21.1836 74.6897 22.3244C75.4157 23.4652 76.2064 24.6968 77.062 26.0191C77.9436 27.3673 78.7473 28.7674 79.4733 30.2193C80.2511 31.6712 80.7956 33.1491 81.1067 34.6529C81.4437 36.1307 81.4048 37.6215 80.99 39.1253C80.627 40.6291 79.7325 42.094 78.3065 43.52C76.725 45.1015 74.8064 46.1127 72.5507 46.5535C70.3469 46.9942 67.9486 46.722 65.3559 45.7368C62.7891 44.7774 60.1575 42.9496 57.461 40.2531Z" fill="black"/>
<path d="M70.3518 52.055L109.593 36.8487L117.176 44.4324L102.009 83.7122L93.9975 75.7006L108.037 42.8379L111.071 45.8713L78.2078 59.911L70.3518 52.055ZM82.2136 53.3384L89.8751 49.6438L103.176 62.9444L99.4811 70.6059L82.2136 53.3384Z" fill="black"/>
<path d="M104.192 85.8952L131.416 58.6716L139.116 66.372L117.998 87.4897L130.988 100.479L124.882 106.585L104.192 85.8952Z" fill="black"/>
<path d="M151.691 100.026L164.331 112.666L158.575 118.422L145.936 105.782L151.691 100.026ZM141.502 111.305L155.736 125.539L149.786 131.489L127.929 109.632L155.153 82.4087L176.504 103.76L170.554 109.71L156.825 95.9816L141.502 111.305Z" fill="black"/>
<defs>
<linearGradient id="paint0_linear_3295_1473" x1="7.82031" y1="89.4079" x2="180.749" y2="89.4079" gradientUnits="userSpaceOnUse">
<stop stop-color="#FF6B00"/>
<stop offset="1" stop-color="#FAC81A"/>
</linearGradient>
</defs>
</svg>
