<svg width="183" height="183" viewBox="0 0 183 183" fill="none" xmlns="http://www.w3.org/2000/svg">
<path d="M114.044 2.54297L7.88281 2.54297L180.812 175.472L180.506 69.0051L114.044 2.54297Z" fill="url(#paint0_linear_3295_1499)" stroke="black" stroke-width="3"/>
<path d="M177.711 181.301C179.368 181.301 180.711 179.958 180.711 178.301V157.301H173.711C172.054 157.301 170.711 158.644 170.711 160.301V178.301C170.711 179.958 172.054 181.301 173.711 181.301H177.711Z" fill="#FAC319"/>
<path d="M177.711 182.801C180.196 182.801 182.211 180.786 182.211 178.301V157.301H179.211V178.301C179.211 179.129 178.539 179.801 177.711 179.801V182.801ZM170.711 157.301V181.301V157.301ZM170.711 178.301C170.711 180.786 172.726 182.801 175.211 182.801H177.711C180.196 182.801 182.211 180.786 182.211 178.301H179.211C179.211 179.129 178.539 179.801 177.711 179.801H173.711C172.054 179.801 170.711 179.129 170.711 178.301ZM180.711 157.301H170.711H180.711Z" fill="black"/>
<path d="M1.88281 5.54297C1.88281 3.88611 3.22596 2.54297 4.88281 2.54297L25.8828 2.54297V9.54297C25.8828 11.1998 24.5397 12.543 22.8828 12.543L4.88281 12.543C3.22596 12.543 1.88281 11.1998 1.88281 9.54297L1.88281 5.54297Z" fill="#FF7603"/>
<path d="M0.382813 5.54297C0.382812 3.05769 2.39753 1.04297 4.88281 1.04297L25.8828 1.04297V4.04297L4.88281 4.04297C4.05439 4.04297 3.38281 4.71454 3.38281 5.54297H0.382813ZM25.8828 12.543L1.88281 12.543L25.8828 12.543ZM4.88281 12.543C2.39753 12.543 0.382813 10.5283 0.382813 8.04297V5.54297C0.382812 3.05769 2.39753 1.04297 4.88281 1.04297V4.04297C4.05439 4.04297 3.38281 4.71454 3.38281 5.54297L3.38281 9.54297C3.38281 11.1998 4.05439 12.543 4.88281 12.543ZM25.8828 2.54297V12.543V2.54297Z" fill="black"/>
<path d="M55.0387 38.6999C53.135 36.7961 51.5696 34.6868 50.3425 32.3719C49.1635 30.0533 48.4609 27.9002 48.2347 25.9127L56.0655 22.3987C56.3289 24.2162 56.8767 26.0591 57.7091 27.9275C58.5894 29.7921 59.7048 31.3996 61.0551 32.7499C61.9628 33.6575 62.7839 34.2974 63.5187 34.6695C64.2793 35.0157 64.9368 35.1552 65.4911 35.0879C66.0935 35.0168 66.6148 34.7611 67.0551 34.3208C67.6767 33.6991 67.9254 32.9635 67.801 32.1139C67.6766 31.2642 67.3435 30.3355 66.8019 29.3276C66.2602 28.3197 65.6299 27.2232 64.9112 26.0382C64.2145 24.8754 63.5716 23.6367 62.9823 22.3222C62.4152 21.0298 62.0291 19.7113 61.8242 18.3667C61.6451 16.9962 61.7783 15.6012 62.2237 14.1817C62.695 12.7364 63.656 11.2884 65.1064 9.83797C66.7382 8.20619 68.5909 7.10614 70.6645 6.53783C72.7603 5.99166 74.9734 6.08083 77.3037 6.80534C79.6341 7.52985 81.9394 9.03215 84.2195 11.3123C85.7469 12.8397 87.034 14.5412 88.0806 16.4166C89.1752 18.2883 89.9096 20.1882 90.2837 22.1164L82.5469 25.8021C82.1394 23.9959 81.5617 22.3821 80.8137 20.9607C80.0916 19.5134 79.2214 18.2805 78.2031 17.2622C77.2955 16.3546 76.4484 15.7407 75.6619 15.4204C74.9012 15.0741 74.2178 14.9606 73.6117 15.0797C73.0056 15.1988 72.4694 15.4915 72.0032 15.9577C71.4075 16.5534 71.1607 17.265 71.263 18.0925C71.4133 18.9163 71.7593 19.8321 72.301 20.84C72.8907 21.8441 73.5339 22.9276 74.2305 24.0905C74.9493 25.2755 75.5922 26.5142 76.1594 27.8065C76.7745 29.0952 77.1717 30.4247 77.3507 31.7952C77.5557 33.1399 77.4114 34.5238 76.918 35.947C76.4725 37.3665 75.5375 38.7885 74.1129 40.213C72.533 41.793 70.6822 42.869 68.5605 43.4411C66.4869 44.0094 64.2849 43.9313 61.9545 43.2068C59.6462 42.5045 57.341 41.0021 55.0387 38.6999Z" fill="black"/>
<path d="M74.6579 57.2312L94.3166 22.4972L101.09 29.2711L83.8885 59.1576L80.4683 55.7375L110.687 38.8675L116.73 44.9109L99.495 74.7641L96.2077 71.4768L126.293 54.474L132.569 60.7498L97.8352 80.4085L90.7957 73.369L105.425 47.981L107.318 49.8737L81.6974 64.2707L74.6579 57.2312Z" fill="black"/>
<path d="M104.129 86.702L141.586 69.7661L148.061 76.2412L131.158 113.731L124.318 106.891L139.71 75.4275L142.3 78.0175L110.836 93.4095L104.129 86.702ZM115.024 87.0299L122.39 83.051L133.746 94.4072L129.767 101.773L115.024 87.0299Z" fill="black"/>
<path d="M133.022 115.595L160.218 88.3988L170.844 99.0245C172.969 101.15 174.394 103.377 175.118 105.708C175.865 108.06 175.895 110.421 175.208 112.791C174.547 115.134 173.18 117.342 171.108 119.414C169.062 121.46 166.867 122.814 164.524 123.475C162.18 124.136 159.819 124.106 157.441 123.385C155.11 122.661 152.883 121.236 150.757 119.111L143.784 112.138L150.048 111.719L139.596 122.17L133.022 115.595ZM149.232 112.535L149.845 106.077L156.42 112.652C157.792 114.024 159.16 114.693 160.524 114.657C161.909 114.644 163.224 114.016 164.467 112.773C165.736 111.504 166.377 110.176 166.39 108.791C166.426 107.427 165.757 106.059 164.385 104.687L157.81 98.1123L164.267 97.4988L149.232 112.535Z" fill="black"/>
<defs>
<linearGradient id="paint0_linear_3295_1499" x1="7.88281" y1="89.0075" x2="180.812" y2="89.0075" gradientUnits="userSpaceOnUse">
<stop stop-color="#FF6B00"/>
<stop offset="1" stop-color="#FAC81A"/>
</linearGradient>
</defs>
</svg>
