<svg width="152" height="181" viewBox="0 0 152 181" fill="none" xmlns="http://www.w3.org/2000/svg">
<path d="M70.5 91L53.5 89C51.8468 97.673 51.3178 102.487 50.9971 111L32.9941 108C30.6286 115.227 30.4677 120.385 31.6805 128L51.1805 131.5C51.5503 139.692 52.2217 144.187 54.6805 152C61.3937 152.963 65.1859 153.23 71.6805 153C69.3015 128.972 68.6315 115.015 70.5 91Z" fill="#29B3EB"/>
<path d="M81.8594 91L98.8594 89C100.513 97.673 101.042 102.487 101.362 111L119.365 108C121.731 115.227 121.892 120.385 120.679 128L101.179 131.5C100.809 139.692 100.138 144.187 97.6789 152C90.9656 152.963 87.1735 153.23 80.6789 153C83.0578 128.972 83.7279 115.015 81.8594 91Z" fill="#29B3EB"/>
<path fill-rule="evenodd" clip-rule="evenodd" d="M4.5 104C0.935219 111.948 0 118.5 0 124.5C0 130.5 4.5 143.5 7 147.5C9.5 151.5 16.9556 159.592 25.5 165.5C36.9374 172.781 43.224 175.39 54.5 178C63.5124 179.62 69.0715 180.474 76 180.5C82.9284 180.474 88.4876 179.62 97.5 178C108.776 175.39 115.063 172.781 126.5 165.5C135.044 159.592 142.5 151.5 145 147.5C147.5 143.5 152 130.5 152 124.5C152 118.5 151.065 111.948 147.5 104C141.792 94.2201 131.774 84.4482 125 78C123.242 75.9602 121.851 74.5184 120.498 73.1149C118.818 71.3737 117.195 69.6916 115 67C114.296 66.1372 113.922 65.6463 113.24 64.753C112.388 63.6359 111.056 61.8897 108 58C102.5 51 95.7179 39.8168 89.5 28C83.8133 17.1927 80.5 9 79.5 6.5C79.2991 5.96414 79.1161 5.46417 78.9462 5.0001C77.8481 2 77.2991 0.5 76 0.5C74.7009 0.5 74.1519 2 73.0538 5.0001C72.8839 5.46417 72.7009 5.96414 72.5 6.5C71.5 9 68.1867 17.1927 62.5 28C56.2821 39.8168 49.5 51 44 58C40.9438 61.8897 39.6117 63.6359 38.7596 64.753C38.0782 65.6463 37.7037 66.1372 37 67C34.8048 69.6916 33.1821 71.3737 31.5024 73.1149C30.1485 74.5183 28.7576 75.9602 27 78C20.2261 84.4482 10.2084 94.2201 4.5 104ZM44 165.5C34.5 160 30.636 155.856 25.5 145.5C22.3724 138.344 21.3533 133.999 21 125.5C21.0115 125.098 21.0223 124.692 21.0331 124.284C21.1324 120.544 21.2374 116.588 22 113C22.243 111.857 22.5247 110.751 22.8248 109.701L23.5 107L26 101C27 98.5002 33.7362 86.1477 41.5 76.9998L52.5 61.4998C52.5 61.4998 60.7797 48.2288 65 39C68.8783 30.519 73.5 16.4998 73.5 16.4998L76 8.5L78.6641 16.4997C78.6641 16.4997 83.2857 30.5189 87.1641 38.9999C91.3844 48.2287 99.6641 61.4997 99.6641 61.4997L110.664 76.9997C118.428 86.1475 125.164 98.5001 126.164 101L128.664 107L129.339 109.701C129.639 110.751 129.921 111.857 130.164 113C130.927 116.588 131.032 120.544 131.131 124.284L131.142 124.694C131.149 124.964 131.156 125.232 131.164 125.5C130.811 133.999 129.792 138.344 126.664 145.5C121.528 155.856 117.664 160 108.164 165.5C98.6641 170.999 89.1879 173.331 76 174C62.8121 173.331 53.5 171 44 165.5Z" fill="#29B3EB"/>
</svg>
